# AST/ASF file generated using VICON BodyLanguage
# -----------------------------------------------
:version 1.10
:name VICON
:units
  mass 1.0
  length 0.45
  angle deg
:documentation
   .ast/.asf automatically generated from VICON data using
   VICON BodyBuilder and BodyLanguage model FoxedUp or BRILLIANT.MOD
:root
   order TX TY TZ RX RY RZ
   axis XYZ
   position 0 0 0  
   orientation 0 0 0 
:bonedata
  begin
     id 1 
     name lhipjoint
     direction 0.606768 -0.715223 0.346827 
     length 2.41543 
     axis 0 0 0  XYZ
  end
  begin
     id 2 
     name lfemur
     direction 0.34202 -0.939693 0  
     length 7.2778  
     axis 0 0 20  XYZ
    dof rx ry rz
    limits (-160.0 20.0)
           (-70.0 70.0)
           (-60.0 70.0)
  end
  begin
     id 3 
     name ltibia
     direction 0.34202 -0.939693 0   
     length 7.61811   
     axis 0 0 20   XYZ
    dof rx
    limits (-10.0 170.0)
  end
  begin
     id 4 
     name lfoot
     direction 0.0823924 -0.226371 0.97055   
     length 2.33618   
     axis -90 7.62852e-016 20   XYZ
    dof rx rz
    limits (-45.0 90.0)
           (-70.0 20.0)
  end
  begin
     id 5 
     name ltoes
     direction 1.53554e-011 -4.21934e-011 1   
     length 1.17015   
     axis -90 7.62852e-016 20   XYZ
    dof rx
    limits (-90.0 20.0)
  end
  begin
     id 6 
     name rhipjoint
     direction -0.6077 -0.714582 0.346516   
     length 2.4176  
     axis 0 0 0  XYZ 
  end
  begin
     id 7 
     name rfemur
     direction -0.34202 -0.939693 0   
     length 7.28127   
     axis 0 0 -20   XYZ
    dof rx ry rz
    limits (-160.0 20.0)
           (-70.0 70.0)
           (-70.0 60.0)
  end
  begin
     id 8 
     name rtibia
     direction -0.34202 -0.939693 0   
     length 7.77648   
     axis 0 0 -20   XYZ
    dof rx
    limits (-10.0 170.0)
 end
 begin
     id 9 
     name rfoot
     direction -0.0809463 -0.222398 0.97159   
     length 2.37533  
     axis -90 -7.62852e-016 -20   XYZ
    dof rx rz
    limits (-45.0 90.0)
           (-20.0 70.0)
  end
  begin
     id 10 
     name rtoes
     direction -1.53568e-011 -4.21714e-011 1   
     length 1.18972   
     axis -90 -7.62852e-016 -20   XYZ
    dof rx
    limits (-90.0 20.0)
  end
  begin
     id 11 
     name lowerback
     direction 0.010968 0.991932 -0.126297   
     length 2.21698   
     axis 0 0 0   XYZ
    dof rx ry rz
    limits (-20.0 45.0)
           (-30.0 30.0)
           (-30.0 30.0)
  end
  begin
     id 12 
     name upperback
     direction 0.0167007 0.997503 -0.0686276   
     length 2.22371   
     axis 0 0 0   XYZ
    dof rx ry rz
    limits (-20.0 45.0)
           (-30.0 30.0)
           (-30.0 30.0)
  end
  begin
     id 13 
     name thorax
     direction 0.0111721 0.999885 -0.0102878   
     length 2.25242   
     axis 0 0 0   XYZ
    dof rx ry rz
    limits (-20.0 45.0)
           (-30.0 30.0)
           (-30.0 30.0)
  end
  begin
     id 14 
     name lowerneck
     direction -0.0120265 0.990428 0.137508   
     length 1.57674   
     axis 0 0 0   XYZ
    dof rx ry rz
    limits (-20.0 45.0)
           (-30.0 30.0)
           (-30.0 30.0)
  end
  begin
     id 15 
     name upperneck
     direction 0.0175669 0.998907 0.0433089   
     length 1.5618   
     axis 0 0 0   XYZ
    dof rx ry rz
    limits (-20.0 45.0)
           (-30.0 30.0)
           (-30.0 30.0)
  end
  begin
     id 16
     name head
     direction 0.00754609 0.99997 0.00185367  
     length 1.60579  
     axis 0 0 0   XYZ
    dof rx ry rz
    limits (-20.0 45.0)
           (-30.0 30.0)
           (-30.0 30.0)
  end
  begin
     id 17 
     name lclavicle
     direction 0.885866 0.429166 -0.176231  
     length 3.44967  
     axis 0 0 0   XYZ
    dof ry rz
    limits (-20.0 10.0)
           (0.0 20.0)
  end
  begin
     id 18 
     name lhumerus
     direction 1 -4.48973e-011 -1.90255e-027   
     length 5.20607   
     axis 180 -30 -90   XYZ
    dof rx ry rz
    limits (-60.0 90.0)
           (-90.0 90.0)
           (-90.0 90.0)
  end
  begin
     id 19
     name lradius
     direction 1 -4.48956e-011 9.87925e-027   
     length 3.39961   
     axis 180 -30 -90   XYZ
    dof rx
    limits (-10.0 170.0)
  end
  begin
     id 20
     name lwrist
     direction 1 -4.48985e-011 1.73247e-026   
     length 1.6998   
     axis -9.60847e-015 90 90   XYZ
    dof ry
    limits (-180.0 0.0)
 end
  begin
     id 21 
     name lhand
     direction 1 -4.48798e-011 3.46119e-026   
     length 0.519693   
     axis -2.21073e-014 90 90   XYZ
    dof rx rz
    limits (-90.0 90.0)
           (-45.0 45.0)
  end
  begin
     id 22 
     name lfingers
     direction 1 -4.48938e-011 6.92797e-026   
     length 0.41899   
     axis -4.42155e-014 90 90   XYZ
    dof rx
    limits (0.0 90.0)
  end
  begin
     id 23
     name lthumb
     direction 0.707107 -6.34952e-011 0.707107   
     length 0.601588   
     axis -90 45 6.0103e-014   XYZ
    dof rx rz
    limits (-45.0 45.0)
           (-45.0 45.0)
  end
  begin
     id 24 
     name rclavicle
     direction -0.866736 0.456792 -0.200276   
     length 3.45032  
     axis 0 0 0   XYZ 
    dof ry rz
    limits (-10.0 20.0)
           (-20.0 0.0)
  end
  begin
     id 25 
     name rhumerus
     direction -1 -4.4897e-011 8.65094e-028  
     length 5.32214   
     axis 180 30 90   XYZ
    dof rx ry rz
    limits (-90.0 60.0)
           (-90.0 90.0)
           (-90.0 90.0)
  end
  begin
     id 26 
     name rradius
     direction -1 -4.48987e-011 1.08427e-026   
     length 3.51208   
     axis 180 30 90   XYZ
    dof rx
    limits (-10.0 170.0)
  end
  begin
     id 27 
     name rwrist
     direction -1 -4.48961e-011 1.73222e-026   
     length 1.75604   
     axis -9.60847e-015 -90 -90   XYZ
    dof ry
    limits (-180.0 0.0)
  end
  begin
     id 28
     name rhand
     direction -1 -4.48895e-011 3.46314e-026   
     length 0.586681   
     axis -2.21073e-014 -90 -90   XYZ
    dof rx rz
    limits (-90.0 90.0)
           (-45.0 45.0)
  end
  begin
     id 29
     name rfingers
     direction -1 -4.48968e-011 6.92916e-026   
     length 0.472997   
     axis -4.42155e-014 -90 -90   XYZ
    dof rx
    limits (0.0 90.0)
  end
  begin
     id 30
     name rthumb
     direction -0.707107 -6.34848e-011 0.707107   
     length 0.679133   
     axis -90 -45 -6.0103e-014   XYZ
    dof rx rz
    limits (-45.0 45.0)
           (-45.0 45.0)
  end
:hierarchy
  begin
    root lhipjoint rhipjoint lowerback
    lhipjoint lfemur
    lfemur ltibia
    ltibia lfoot
    lfoot ltoes
    rhipjoint rfemur
    rfemur rtibia
    rtibia rfoot
    rfoot rtoes
    lowerback upperback
    upperback thorax
    thorax lowerneck lclavicle rclavicle
    lowerneck upperneck
    upperneck head
    lclavicle lhumerus
    lhumerus lradius
    lradius lwrist
    lwrist lhand lthumb
    lhand lfingers
    rclavicle rhumerus
    rhumerus rradius
    rradius rwrist
    rwrist rhand rthumb
    rhand rfingers
  end

#!OML:ASF H:\Dans Jumps\Project 1\Capture day 1\Session 1\subject.ASF
:FULLY-SPECIFIED
:DEGREES
1
root -0.00197363 17.5983 -14.2746 7.70327 -0.172333 -1.43403
lowerback 0.583753 -0.519016 0.320659
upperback 5.54505 -0.784789 1.82923
thorax 5.42739 -0.424802 1.68354
lowerneck -11.9043 0.413561 -2.3356
upperneck 34.611 0.954334 0.760396
head 13.6779 0.207426 0.856933
rclavicle 8.24956e-015 3.97569e-015
rhumerus -19.3265 -18.1364 -80.5624
rradius 23.1247
rwrist 32.1933
rhand -19.1907 -26.9112
rfingers 7.12502
rthumb 7.12102 -56.7714
lclavicle 8.24956e-015 3.97569e-015
lhumerus -16.865 -1.71497 88.845
lradius 17.7242
lwrist 2.89981
lhand -24.998 -2.69907
lfingers 7.12502
lthumb 1.51352 27.2753
rfemur -16.7136 -3.63374 20.6107
rtibia 22.6571
rfoot -12.6803 -1.94619
rtoes 12.6165
lfemur -15.4269 6.61663 -17.6229
ltibia 20.2798
lfoot -10.245 4.46278
ltoes 0.0552755
2
root 0.000262633 17.5979 -14.2757 7.69491 -0.177015 -1.44013
lowerback 0.580545 -0.517575 0.315067
upperback 5.54062 -0.782504 1.82506
thorax 5.42448 -0.423795 1.68241
lowerneck -11.9449 0.446545 -2.28509
upperneck 34.6077 0.998405 0.737789
head 13.6849 0.23006 0.845741
rclavicle 6.55989e-015 -7.95139e-015
rhumerus -19.3544 -18.2135 -80.5707
rradius 23.1152
rwrist 32.3144
rhand -19.256 -26.808
rfingers 7.12502
rthumb 7.05808 -56.6703
lclavicle 6.55989e-015 -7.95139e-015
lhumerus -16.8435 -1.67045 88.7995
lradius 17.6927
lwrist 2.86648
lhand -25.1086 -2.96494
lfingers 7.12502
lthumb 1.40666 27.0102
rfemur -16.7088 -3.61739 20.609
rtibia 22.6585
rfoot -12.6804 -1.97226
rtoes 12.5742
lfemur -15.4337 6.61349 -17.6248
ltibia 20.3004
lfoot -10.2411 4.47815
ltoes 0.0284637
3
root 0.00258476 17.5972 -14.2769 7.69349 -0.181213 -1.45294
lowerback 0.587221 -0.518923 0.311218
upperback 5.51746 -0.783751 1.82654
thorax 5.39632 -0.424485 1.68607
lowerneck -11.9504 0.468216 -2.25709
upperneck 34.5923 1.02946 0.718618
head 13.679 0.24474 0.837621
rclavicle -7.15625e-015 -9.14409e-015
rhumerus -19.4034 -18.2124 -80.5846
rradius 23.1148
rwrist 32.2696
rhand -19.308 -26.7198
rfingers 7.12502
rthumb 7.00788 -56.5838
lclavicle -7.15625e-015 -9.14409e-015
lhumerus -16.8618 -1.61713 88.7567
lradius 17.6661
lwrist 2.82845
lhand -25.1095 -2.87282
lfingers 7.12502
lthumb 1.40586 27.1023
rfemur -16.7073 -3.6062 20.6146
rtibia 22.6473
rfoot -12.6864 -1.97729
rtoes 12.6044
lfemur -15.4381 6.59407 -17.6158
ltibia 20.3075
lfoot -10.2508 4.48941
ltoes 0.0566811
4
root 0.0056875 17.5974 -14.277 7.67461 -0.196641 -1.46671
lowerback 0.594627 -0.51587 0.308539
upperback 5.51368 -0.77972 1.83261
thorax 5.38814 -0.42275 1.69408
lowerneck -11.9633 0.477364 -2.26955
upperneck 34.5688 1.04342 0.727628
head 13.671 0.250584 0.845331
rclavicle 3.97569e-016 1.23246e-014
rhumerus -19.396 -18.2874 -80.5898
rradius 23.0829
rwrist 32.2349
rhand -19.2513 -26.8152
rfingers 7.12502
rthumb 7.06255 -56.6774
lclavicle 3.97569e-016 1.23246e-014
lhumerus -16.8625 -1.57253 88.7284
lradius 17.6617
lwrist 2.79243
lhand -25.1401 -2.92846
lfingers 7.12502
lthumb 1.3763 27.0468
rfemur -16.6828 -3.59951 20.6148
rtibia 22.6377
rfoot -12.6664 -1.96251
rtoes 12.5959
lfemur -15.419 6.59912 -17.6116
ltibia 20.3172
lfoot -10.251 4.50953
ltoes 0.00212578
5
root 0.00862022 17.5971 -14.2778 7.6677 -0.205025 -1.4807
lowerback 0.596049 -0.515655 0.308639
upperback 5.50249 -0.779416 1.83703
thorax 5.37558 -0.422647 1.69862
lowerneck -11.9706 0.49047 -2.26685
upperneck 34.5472 1.06362 0.723127
head 13.6627 0.259303 0.845879
rclavicle 5.96354e-015 -1.82882e-014
rhumerus -19.4184 -18.3351 -80.595
rradius 23.0704
rwrist 32.2404
rhand -19.2445 -26.8102
rfingers 7.12502
rthumb 7.06914 -56.6721
lclavicle 5.96354e-015 -1.82882e-014
lhumerus -16.8648 -1.51903 88.6953
lradius 17.6428
lwrist 2.75254
lhand -25.1578 -2.94779
lfingers 7.12502
lthumb 1.35918 27.0276
rfemur -16.6741 -3.5938 20.6181
rtibia 22.6279
rfoot -12.655 -1.95792
rtoes 12.5722
lfemur -15.4169 6.59285 -17.6062
ltibia 20.3255
lfoot -10.2507 4.52548
ltoes -0.0178157
6
root 0.0117711 17.597 -14.2787 7.66217 -0.212136 -1.49523
lowerback 0.595618 -0.516443 0.310875
upperback 5.49192 -0.780579 1.84227
thorax 5.36477 -0.423201 1.70274
lowerneck -11.9727 0.50024 -2.26763
upperneck 34.5224 1.08079 0.715367
head 13.6519 0.265873 0.845226
rclavicle 2.18663e-015 -1.94809e-014
rhumerus -19.4418 -18.3779 -80.5992
rradius 23.0615
rwrist 32.2496
rhand -19.2317 -26.8086
rfingers 7.12502
rthumb 7.08152 -56.6701
lclavicle 2.18663e-015 -1.94809e-014
lhumerus -16.8662 -1.45786 88.664
lradius 17.6235
lwrist 2.70696
lhand -25.162 -2.94477
lfingers 7.12502
lthumb 1.35509 27.0307
rfemur -16.6654 -3.59228 20.6214
rtibia 22.6148
rfoot -12.6414 -1.94997
rtoes 12.5431
lfemur -15.4163 6.58648 -17.6011
ltibia 20.3326
lfoot -10.2512 4.53999
ltoes -0.0338791
7
root 0.0151477 17.5968 -14.2797 7.65788 -0.217265 -1.50938
lowerback 0.593331 -0.517719 0.316069
upperback 5.48274 -0.782496 1.84701
thorax 5.35645 -0.423987 1.70463
lowerneck -11.9722 0.507293 -2.26815
upperneck 34.4945 1.09553 0.702633
head 13.6392 0.270814 0.842144
rclavicle -1.19271e-014 2.38542e-015
rhumerus -19.4662 -18.4198 -80.6031
rradius 23.056
rwrist 32.2704
rhand -19.2211 -26.8073
rfingers 7.12502
rthumb 7.09172 -56.6685
lclavicle -1.19271e-014 2.38542e-015
lhumerus -16.8634 -1.38944 88.6332
lradius 17.6016
lwrist 2.65616
lhand -25.161 -2.93615
lfingers 7.12502
lthumb 1.35606 27.0393
rfemur -16.6608 -3.59426 20.6239
rtibia 22.6074
rfoot -12.6322 -1.94138
rtoes 12.5158
lfemur -15.4198 6.58036 -17.5975
ltibia 20.3443
lfoot -10.2544 4.55296
ltoes -0.0423347
8
root 0.0186484 17.5966 -14.281 7.65509 -0.219349 -1.52389
lowerback 0.589483 -0.520389 0.323304
upperback 5.47594 -0.786413 1.85225
thorax 5.35159 -0.425704 1.70582
lowerneck -11.9734 0.512933 -2.26744
upperneck 34.4649 1.11017 0.683306
head 13.6263 0.275024 0.836202
rclavicle 1.49089e-014 -1.86858e-014
rhumerus -19.4897 -18.4501 -80.6093
rradius 23.058
rwrist 32.2866
rhand -19.2225 -26.7996
rfingers 7.12502
rthumb 7.09041 -56.6609
lclavicle 1.49089e-014 -1.86858e-014
lhumerus -16.8556 -1.31483 88.603
lradius 17.5789
lwrist 2.60179
lhand -25.1565 -2.91156
lfingers 7.12502
lthumb 1.3604 27.0639
rfemur -16.659 -3.59689 20.6266
rtibia 22.6016
rfoot -12.6257 -1.93543
rtoes 12.5024
lfemur -15.4275 6.57479 -17.5941
ltibia 20.3579
lfoot -10.2597 4.56084
ltoes -0.0365864
